<svg xmlns="http://www.w3.org/2000/svg" viewBox="0 0 675 675" width="675" height="675">
  <path fill="#262f76" d="M562.789 377.352c0 79.03-92.254 143.097-206.102 143.097s-206.105-64.067-206.105-143.097c0-79.028 92.297-143.098 206.105-143.098s206.102 64.07 206.102 143.098z"/>
  <path fill="#fbdf00" d="M553.016 367.199c0 70.414-88.122 127.508-196.809 127.508S159.402 437.613 159.402 367.199s88.09-127.527 196.805-127.527 196.809 57.152 196.809 127.527z"/>
  <path fill="#262f76" d="M555.473 359.785l-.356-2.934c-3.125-26.273-18.07-51.007-43.226-71.535l-1.801-1.46-2.02 1.12c-34.945 19.27-72.629 20.09-111.926 2.458-53.64-24.051-80.23 3.777-81.266 4.91l-6.195 6.348c-10.922-1.199-39.898 2.445-44.758 3.07-16.016-1.144-35.652-7.492-58.472-18.886l-1.938-.973-1.707 1.367c-27.504 21.523-43.418 47.77-46.023 75.848l3.41.328-.488 3.383c14.387 2.16 28.454 5.629 42.196 10.414s27.828 10.207 40.449 17.445l.668.383c-.774 2.121-1.176 4.308-1.2 6.566 0 .66.036 1.317.098 1.973.067.656.164 1.308.293 1.957.129.644.289 1.285.484 1.914.192.633.415 1.25.665 1.86.254.61.536 1.207.848 1.789.313.578.649 1.145 1.016 1.692.367.551.762 1.078 1.18 1.59.418.508.86.996 1.325 1.464.469.465.957.907 1.465 1.325.512.422 1.04.812 1.59 1.18.547.367 1.114.707 1.692 1.015.582.313 1.18.594 1.789.848.61.254 1.227.473 1.86.665.629.191 1.27.351 1.918.48.645.129 1.297.227 1.953.293.657.066 1.313.098 1.973.098.704 0 1.407-.043 2.102-.137.348 1.574.876 3.086 1.579 4.535.707 1.45 1.574 2.793 2.598 4.04 1.023 1.241 2.18 2.347 3.469 3.316 1.289.969 2.672 1.773 4.148 2.414 2.332.91 4.746 1.351 7.246 1.332 2.5-.024 4.91-.508 7.222-1.453.465 1.48 1.082 2.898 1.852 4.25.77 1.347 1.676 2.601 2.72 3.754 1.038 1.152 2.19 2.18 3.456 3.086 1.265.902 2.609 1.66 4.04 2.273 2.484.969 5.058 1.453 7.726 1.453 2.664 0 5.242-.484 7.723-1.453.144.45.304.895.476 1.336.172.438.36.875.563 1.301.199.43.414.852.64 1.266.227.418.465.824.72 1.223.253.402.519.793.796 1.176.278.382.571.754.871 1.121.301.363.614.719.938 1.062.324.344.66.68 1.008 1 .344.324.7.637 1.066.938.364.3.739.59 1.121.867.387.274.778.539 1.176.793.399.25.809.488 1.223.715.414.238.824.465 1.235.68.418.226.844.438 1.266.64.43.2.867.383 1.309.555.441.172.883.332 1.336.476.45.14.895.282 1.344.414.453.14.906.27 1.367.387.457.114.918.215 1.383.301.461.086.926.152 1.39.207.473.055.941.094 1.414.121.473.024.941.036 1.414.028.473-.004.945-.024 1.418-.059.472-.035.94-.086 1.41-.152.468-.066.937-.145 1.398-.238.465-.098.926-.207 1.383-.328.453-.125.906-.266 1.355-.418.446-.145.89-.305 1.325-.476.438-.168.868-.348 1.297-.543.43-.207.852-.422 1.27-.664.414-.235.82-.481 1.21-.743.395-.261.782-.535 1.157-.82.379-.285.746-.582 1.106-.89.36-.309.708-.629 1.047-.957 2.114 1.106 10.727 5.293 19.778 5.293 1.437.063 2.871-.031 4.289-.273 1.422-.246 2.8-.637 4.137-1.176 1.336-.539 2.601-1.215 3.797-2.024 1.191-.808 2.285-1.734 3.281-2.777 9.2.23 24.434-2.84 28.145-15.63 9.297-.492 23.477-5.27 27.3-20.992 4.724-.313 14.017-1.653 19.368-7.247.688-.687 1.32-1.422 1.89-2.207.575-.785 1.083-1.609 1.524-2.476.441-.863.812-1.758 1.11-2.684.3-.926.523-1.867.671-2.828.153-.957.223-1.926.219-2.895-.004-.972-.082-1.937-.242-2.898-.156-.957-.387-1.899-.695-2.82-.309-.922-.684-1.813-1.133-2.676 5.637-3.086 24.375-10.754 86.465-28.05z"/>
  <path fill="#fff" d="M321.813 440.465l-.575-5.293-4.586 2.727c-1-.644-2.055-1.164-3.168-1.563-1.117-.398-2.262-.664-3.438-.8-1.175-.133-2.355-.13-3.531.007-1.176.136-2.32.41-3.434.812-4.656 1.883-7.93 6.453-9.008 12.555l-.887 4.969-4.3-2.649c-.888.61-1.833 1.11-2.837 1.497-1.008.387-2.043.652-3.11.797-1.066.14-2.136.156-3.206.047-1.074-.114-2.117-.348-3.133-.703-4.488-1.828-7.574-6.469-8.188-12.422l-.464-4.094-3.946 1.2c-1.246.406-2.523.62-3.836.644-.547 0-1.09-.031-1.633-.098-.543-.066-1.078-.164-1.609-.297-.527-.129-1.047-.293-1.559-.488-.511-.195-1.003-.422-1.488-.68-.48-.258-.945-.543-1.394-.859-.445-.313-.871-.652-1.273-1.02-.407-.367-.79-.757-1.145-1.172-.356-.414-.688-.847-.988-1.3-.305-.457-.579-.926-.82-1.414-.247-.489-.462-.993-.645-1.504-.184-.516-.332-1.039-.45-1.574-.12-.531-.203-1.07-.257-1.613-.05-.547-.071-1.09-.055-1.637.016-.547.066-1.09.148-1.629.082-.539.196-1.075.344-1.598.149-.527.328-1.043.54-1.543l.683-1.215c1.129-2.082 2.703-3.746 4.722-4.984l.235-.137c.867-.477 1.777-.855 2.726-1.144l.629-.192c1.059-.289 2.137-.437 3.235-.453 1.175.012 2.328.176 3.457.492 1.133.317 2.2.774 3.211 1.371 1.008.602 1.922 1.321 2.742 2.164.82.84 1.516 1.774 2.086 2.801l2.047 3.59 3.156-2.73c4.598-3.89 10.223-5.188 14.766-3.344 3.742 1.512 6.457 4.954 7.687 9.665l1.254 4.87 4.094-2.948c4.93-3.563 10.579-4.571 15.263-2.731 7.18 2.922 10.836 11.863 8.899 21.746l-1.066 5.457 5.367-1.515c1.363-.414 2.761-.633 4.187-.653 1.024 0 2.035.102 3.04.301 1.003.2 1.976.496 2.921.887.942.39 1.84.871 2.692 1.441.847.567 1.632 1.211 2.355 1.934.727.723 1.371 1.512 1.937 2.36.571.851 1.05 1.75 1.441 2.691.391.946.688 1.918.887 2.922.2 1.004.3 2.016.3 3.04-.008.945-.098 1.878-.274 2.808-.093.48-.246.957-.379 1.367-.137.41-.207.723-.344 1.078-.25.664-.54 1.309-.871 1.938l-.153.258c-.402.734-.86 1.437-1.363 2.101l-.246.317c-.485.586-1.004 1.136-1.571 1.644-.562.512-1.16.977-1.789 1.399-.633.422-1.293.797-1.98 1.121-.688.324-1.395.598-2.121.817-.727.218-1.465.386-2.22.496-.749.11-1.507.168-2.265.164-.762 0-1.516-.055-2.266-.168-.754-.113-1.492-.277-2.219-.5-.727-.222-1.434-.496-2.12-.82-.688-.324-1.345-.7-1.977-1.121-.63-.426-1.227-.891-1.79-1.402-.561-.512-1.081-1.063-1.566-1.649-.48-.59-.914-1.207-1.305-1.86-.39-.652-.73-1.332-1.02-2.035-.289-.703-.523-1.422-.707-2.16-.183-.735-.312-1.485-.387-2.238z"/>
  <path fill="#fff" d="M457.852 405.348c-3.48 3.656-10.441 4.832-14.711 5.133l-34.125-31.203c-1.363-1.297-3.055-2.266-4.38-.887-1.323 1.38.112 3.645 1.475 4.954l30.957 30.863c-2.73 15.285-17.117 17.129-21.922 17.305l-21.32-22.152c-1.27-1.363-3.098-2.731-4.504-1.516-1.406 1.215.094 3.25 1.363 4.656l19.04 23.203c-2.337 9.707-14.633 11.195-20.2 11.36l-20.652-21.387c-1.27-1.367-2.96-2.648-4.383-1.367-1.418 1.285-.148 3.344 1.12 4.766l17.008 20.62c-7.551 7.317-21.293 1.75-25.649-.312.121-.23.219-.465.328-.696.258-.53.532-1.05.75-1.613.434-1.055.77-2.145 1.012-3.262.082-.324.137-.652.188-.98.257-1.305.39-2.618.398-3.945 0-.758-.035-1.516-.113-2.27-.074-.757-.191-1.507-.34-2.249-.152-.742-.343-1.477-.57-2.203-.227-.723-.489-1.434-.79-2.133-.296-.695-.632-1.38-1-2.043-.367-.664-.77-1.305-1.203-1.93-.434-.62-.899-1.222-1.39-1.796-.497-.574-1.02-1.125-1.571-1.649-.551-.524-1.125-1.016-1.727-1.48-.597-.465-1.222-.895-1.867-1.297-.644-.403-1.304-.766-1.988-1.098-.684-.332-1.38-.633-2.09-.895-.715-.261-1.438-.489-2.172-.676-.734-.191-1.476-.34-2.23-.457-.75-.114-1.504-.188-2.263-.223-.761-.039-1.519-.035-2.277.004.559-11.207-4.668-20.938-13.648-24.567-1.457-.566-2.96-.972-4.504-1.21-1.543-.238-3.098-.312-4.656-.214-1.563.101-3.094.363-4.598.793-1.5.434-2.942 1.02-4.316 1.766-.485-1.031-1.048-2.011-1.692-2.949-.066-.11-.121-.234-.203-.344-.082-.11-.453-.531-.668-.805-2.02-2.672-4.574-4.66-7.66-5.965-5.95-2.414-12.762-1.555-18.782 2.254-1.117-1.04-2.098-1.973-3.18-2.797 0 0-.125-.137-.207-.192-.558-.425-1.199-.726-1.801-1.093-3.152-1.977-6.586-2.989-10.304-3.032-1.223.016-2.434.137-3.633.371l-.64.11c-1.02.23-2.016.543-2.989.926l-1.066.453c-.84.394-1.653.848-2.43 1.363-.422.274-.832.575-1.242.887-.41.316-.82.656-1.218.996-.715.633-1.383 1.309-2.004 2.035-.137.164-.289.301-.41.465l-.574-.328c-11.922-6.852-24.345-12.645-37.255-17.379-12.91-4.735-26.133-8.34-39.657-10.82-1.367-.235-5.57-.45-6.828-.668 3.184-24.391 17.145-48.676 41.043-67.907.972.465 5.039 2.293 5.992 2.73 21.758 10.387 40.77 16.188 56.578 17.239h.668c11.52-1.5 28.664-3.277 38.52-3.316l-26.782 27.504 1.364 2.25c4.586 7.753 12.11 10.046 19.383 10.046 7.18-.25 14.047-1.851 20.598-4.804l.492-.285s10.508-7.29 24.8-17.008l3.985-2.73c13.648-9.337 23.488-1.172 24.023-.723.532.45 59.07 46.406 80.282 64.152l8 6.387c.43.555.8 1.145 1.12 1.774.317.625.579 1.273.778 1.945.2.672.336 1.36.406 2.059.074.695.082 1.395.028 2.094-.06.703-.176 1.39-.36 2.066-.183.68-.43 1.332-.735 1.965-.305.633-.664 1.234-1.078 1.8-.414.567-.879 1.09-1.39 1.571z"/>
  <path fill="#fff" d="M170.332 192.324l5.012 21.902 21.898 5.008-21.898 5.016-5.012 21.898-5.016-21.898-21.898-5.016 21.898-5.008zM117.5 239.199l3.625 15.848 15.848 3.625-15.848 3.633L117.5 278.145l-3.625-15.84-15.848-3.633 15.848-3.625zM565.438 502.605l3.624 15.848 15.848 3.625-15.848 3.63-3.624 15.843-3.625-15.844-15.848-3.629 15.848-3.625z"/>
</svg>